<svg xmlns="http://www.w3.org/2000/svg" viewBox="0 0 64 64" id="global-location"><path d="M50.249,21.055c2.785-5.533,4.213-9.3,4.213-11.175a7.649,7.649,0,0,0-15.3,0,14.512,14.512,0,0,0,1.264,4.758,24.418,24.418,0,0,0-7.95-1.339,24.138,24.138,0,0,0-12.06,3.21A7.859,7.859,0,0,0,4.859,18.084c0,1.958,1.534,5.979,4.537,11.926a24.111,24.111,0,0,0,1.218,18.153,24.714,24.714,0,0,0,6.649,8.363A24.278,24.278,0,0,0,50.249,21.055ZM46.807,4.572A5.32,5.32,0,0,1,52.128,9.88c0,.717-.421,3.206-4.319,10.837-.363.714-.7,1.368-1,1.924-.236-.447-.505-.962-.789-1.516-.727-1.416-1.57-3.116-2.33-4.8C41.782,12.157,41.5,10.5,41.5,9.88A5.314,5.314,0,0,1,46.807,4.572ZM36.07,15.955a21.435,21.435,0,0,1,5.673,1.725c.042.092.085.183.128.275.033.073.067.146.1.219q.126.27.252.537c.036.075.07.148.106.222.085.179.17.356.255.533.035.071.069.143.1.214l.259.529.1.2.256.515.1.2c.08.16.159.316.237.471l.107.211c.079.155.156.3.233.454l.1.188c.078.151.153.3.228.439.027.053.055.107.082.158l.222.424.07.132.2.38.066.125c.062.117.12.225.177.331l.062.117.175.325.022.041.155.286.014.025.106.2.022.04.041.074.068.124a1.168,1.168,0,0,0,1.018.6h0a1.168,1.168,0,0,0,1.018-.6c.006-.012.047-.086.1-.186l.013-.023c.09-.163.23-.419.414-.757l.044-.083c.046-.085.1-.177.146-.272l.109-.2c.054-.1.109-.2.167-.313.049-.091.1-.188.151-.285s.095-.179.146-.277l.007-.014a22.074,22.074,0,0,1,1.735,2.328c0,.027-.005.053,0,.08a1.359,1.359,0,0,1-.438,1.459c-1.462,1.294-5.276,1.343-6.626.875-.464-.161-.615-.38-1.02-1.05-.654-1.078-1.641-2.707-5.073-4.354a3.716,3.716,0,0,1-2.083-2.2A6.882,6.882,0,0,1,36.07,15.955ZM7.193,18.084a5.525,5.525,0,1,1,11.05,0,2.309,2.309,0,0,1-.028.327c-.295,2.674-3.473,9.133-5.493,12.951-.3-.572-.658-1.248-1.036-1.989C7.631,21.407,7.193,18.824,7.193,18.084ZM10.507,37.6a22.172,22.172,0,0,1,.471-4.554c.031.056.054.1.082.151l.082.152c.071.13.136.251.2.358l.021.04c.211.387.344.625.347.631a1.168,1.168,0,0,0,1.018.6h0a1.164,1.164,0,0,0,1.018-.6c.016-.028.056-.1.113-.2l.015-.027.2-.37.151-.279.173-.32.189-.354c.071-.133.138-.258.215-.4s.177-.337.269-.512l.192-.367c.114-.218.233-.45.353-.685l.16-.31c.139-.271.281-.554.426-.842.039-.079.077-.154.117-.233q.235-.473.477-.967l.092-.187q.252-.518.5-1.048c.025-.051.049-.1.073-.153.171-.363.339-.726.506-1.093l.064-.139c.169-.373.332-.743.493-1.114l.053-.121c.159-.367.31-.73.457-1.09l.058-.143c.141-.348.273-.688.4-1.023.023-.06.044-.119.066-.179q.174-.471.323-.916c.027-.081.052-.16.078-.24q.129-.4.233-.772c.03-.107.056-.21.083-.313.017-.066.037-.136.052-.2,3.888.741,6.165,2.577,6.565,5.371.454,3.179-1.6,6.478-2.887,7.056-2.824,1.271-3.233,1.961-4.215,4.159-.289.646-.649,1.45-1.191,2.493-1.473,2.833-5.82,3.345-7.56,3.437A21.614,21.614,0,0,1,10.507,37.6ZM32.478,59.587a21.824,21.824,0,0,1-4.255-.437c-.894-1.407-3.293-5.765-.284-7.955,1.385-1.012,2.529-1.931,3.49-2.79,1.169,2.334,2.186,4.177,2.2,4.2a1.167,1.167,0,0,0,1.02.6h0a1.168,1.168,0,0,0,1.02-.6c.585-1.051,5.58-10.143,5.829-13.708A20.843,20.843,0,0,1,44,40.772c1.2,1,2.282,1.894,3.309,1.894a1.741,1.741,0,0,0,.955-.289c1.325-.854,4.946-1.814,5.669-.915a1.034,1.034,0,0,0,.145.121A22.006,22.006,0,0,1,32.478,59.587ZM30.1,38.619a4.539,4.539,0,0,1,8.92-1.2,4,4,0,0,1,.169,1.2c0,1.766-2.473,7.042-4.535,10.957-.517-.984-1.172-2.262-1.824-3.612C30.364,40.872,30.1,39.131,30.1,38.619ZM47.231,40.28a12.681,12.681,0,0,1-1.736-1.3,14.662,14.662,0,0,0-4.476-2.862c-.053-.138-.091-.283-.152-.416-.09-.2-.207-.372-.314-.556-.08-.137-.147-.283-.236-.413-.126-.185-.276-.35-.419-.521-.093-.11-.174-.232-.273-.336a6.938,6.938,0,0,0-.518-.466c-.1-.087-.193-.186-.3-.267a7.134,7.134,0,0,0-.6-.386c-.11-.067-.211-.147-.324-.208a6.747,6.747,0,0,0-.68-.3c-.113-.046-.218-.106-.333-.145a6.909,6.909,0,0,0-.813-.206c-.092-.02-.179-.054-.272-.069a6.881,6.881,0,0,0-8.021,6.789c0,.53.007,2.1,2.6,7.595a39.491,39.491,0,0,1-3.8,3.095c-3.064,2.231-2.856,5.826-1.454,8.983a22.126,22.126,0,0,1-13.436-13.7c2.391-.191,7.109-1.031,9-4.658.574-1.1.95-1.943,1.251-2.618.818-1.829.9-2.02,3.043-2.982,2.432-1.095,4.814-5.489,4.239-9.514-.288-2.015-1.56-5.3-6.519-6.866a21.828,21.828,0,0,1,9.8-2.317c.4,0,.8.043,1.2.064a8.756,8.756,0,0,0-.271,5.416A6.01,6.01,0,0,0,36.694,24.7c2.806,1.345,3.517,2.517,4.087,3.458A4.051,4.051,0,0,0,43.032,30.2a10,10,0,0,0,3.021.4c2.051,0,4.465-.445,5.917-1.732a3.986,3.986,0,0,0,.46-.49A21.874,21.874,0,0,1,54.462,37.6c0,.486-.042.963-.074,1.442C52.055,38.2,48.517,39.557,47.231,40.28Z"></path><path d="M51.071 9.952a4.232 4.232 0 1 0-4.236 4.227A4.241 4.241 0 0 0 51.071 9.952zm-6.3 0a2.065 2.065 0 1 1 2.06 2.059A2.068 2.068 0 0 1 44.775 9.952zM38.273 38.614a3.716 3.716 0 0 0-.64-2.065 3.653 3.653 0 1 0-3.139 5.721h.133A3.655 3.655 0 0 0 38.273 38.614zm-3.646 1.608h-.08a1.6 1.6 0 0 1 .08-3.207 1.591 1.591 0 0 1 1.309.681 1.653 1.653 0 0 1 .289.917A1.605 1.605 0 0 1 34.627 40.222zM17.227 18.118a4.464 4.464 0 1 0-4.458 4.469A4.463 4.463 0 0 0 17.227 18.118zm-6.7 0a2.235 2.235 0 1 1 2.24 2.24A2.237 2.237 0 0 1 10.529 18.118zM27.6 7.021a1 1 0 0 0 .174.024.588.588 0 0 0 .56-.409.581.581 0 0 0-1.108-.35A.583.583 0 0 0 27.6 7.021zM31.066 7.979h.094a.577.577 0 0 0 .571-.491.589.589 0 0 0-.49-.665.581.581 0 0 0-.665.49A.589.589 0 0 0 31.066 7.979zM34.567 7.535a.52.52 0 0 0 .256-.058.567.567 0 0 0 .268-.771.577.577 0 0 0-.769-.279.587.587 0 0 0-.281.781A.576.576 0 0 0 34.567 7.535zM19.071 10.5a.666.666 0 0 0 .151.023.587.587 0 1 0-.56-.735h-.011A.587.587 0 0 0 19.071 10.5zM24.357 6.438h.023a.6.6 0 0 0 .56-.607.583.583 0 1 0-.583.607zM21.136 7.664a.6.6 0 0 0 .362-.129.578.578 0 0 0 .093-.817.567.567 0 0 0-.817-.093.577.577 0 0 0-.093.816A.591.591 0 0 0 21.136 7.664z"></path></svg>